PathFileType	4	(X/Y/Z)	./output/13/trials/OTN_P1.trc
DataRate	CameraRate	NumFrames	NumMarkers	Units	OrigDataRate	OrigDataStartFrame	OrigNumFrames
30.000000	30.000000	4	105	m	30.000000	312	625
Frame#	Time	BLTI			BRTI			C7			CHIN			CLAV			FBBT			FLTI			FRBT			FRTI			LAKI			LANK			LBAC			LBHD			LBWT			LELB			LELS			LELSO			LFBB			LFBT			LFFB			LFFT			LFHD			LFIN			LFLB			LFLT			LFMB			LFMT			LFPI			LFRM			LFWT			LHAP			LHBA			LHEB			LHEE			LHFR			LHME			LHPI			LHTH			LHTO			LKNE			LKNI			LMT5			LSCA			LSHN			LSHO			LTIA			LTIB			LTIC			LTOE			LTOP			LTOS			LUMB			LUMC			LWRA			LWRB			NOSE			RAKI			RANK			RBAC			RBHD			RBWT			RELB			RELS			RELSO			RFBB			RFBT			RFFB			RFFT			RFHD			RFIN			RFLB			RFLT			RFMB			RFMT			RFPI			RFRM			RFWT			RHAP			RHBA			RHEB			RHEE			RHFR			RHME			RHPI			RHTH			RHTO			RIBL			RIBR			RITL			RITR			RKNE			RKNI			RMT5			RSCA			RSHN			RSHO			RTIA			RTIB			RTIC			RTOE			RTOP			RTOS			RWRA			RWRB			THD
		X1	Y1	Z1	X2	Y2	Z2	X3	Y3	Z3	X4	Y4	Z4	X5	Y5	Z5	X6	Y6	Z6	X7	Y7	Z7	X8	Y8	Z8	X9	Y9	Z9	X10	Y10	Z10	X11	Y11	Z11	X12	Y12	Z12	X13	Y13	Z13	X14	Y14	Z14	X15	Y15	Z15	X16	Y16	Z16	X17	Y17	Z17	X18	Y18	Z18	X19	Y19	Z19	X20	Y20	Z20	X21	Y21	Z21	X22	Y22	Z22	X23	Y23	Z23	X24	Y24	Z24	X25	Y25	Z25	X26	Y26	Z26	X27	Y27	Z27	X28	Y28	Z28	X29	Y29	Z29	X30	Y30	Z30	X31	Y31	Z31	X32	Y32	Z32	X33	Y33	Z33	X34	Y34	Z34	X35	Y35	Z35	X36	Y36	Z36	X37	Y37	Z37	X38	Y38	Z38	X39	Y39	Z39	X40	Y40	Z40	X41	Y41	Z41	X42	Y42	Z42	X43	Y43	Z43	X44	Y44	Z44	X45	Y45	Z45	X46	Y46	Z46	X47	Y47	Z47	X48	Y48	Z48	X49	Y49	Z49	X50	Y50	Z50	X51	Y51	Z51	X52	Y52	Z52	X53	Y53	Z53	X54	Y54	Z54	X55	Y55	Z55	X56	Y56	Z56	X57	Y57	Z57	X58	Y58	Z58	X59	Y59	Z59	X60	Y60	Z60	X61	Y61	Z61	X62	Y62	Z62	X63	Y63	Z63	X64	Y64	Z64	X65	Y65	Z65	X66	Y66	Z66	X67	Y67	Z67	X68	Y68	Z68	X69	Y69	Z69	X70	Y70	Z70	X71	Y71	Z71	X72	Y72	Z72	X73	Y73	Z73	X74	Y74	Z74	X75	Y75	Z75	X76	Y76	Z76	X77	Y77	Z77	X78	Y78	Z78	X79	Y79	Z79	X80	Y80	Z80	X81	Y81	Z81	X82	Y82	Z82	X83	Y83	Z83	X84	Y84	Z84	X85	Y85	Z85	X86	Y86	Z86	X87	Y87	Z87	X88	Y88	Z88	X89	Y89	Z89	X90	Y90	Z90	X91	Y91	Z91	X92	Y92	Z92	X93	Y93	Z93	X94	Y94	Z94	X95	Y95	Z95	X96	Y96	Z96	X97	Y97	Z97	X98	Y98	Z98	X99	Y99	Z99	X100	Y100	Z100	X101	Y101	Z101	X102	Y102	Z102	X103	Y103	Z103	X104	Y104	Z104	X105	Y105	Z105
313	10.400000	-0.449813	-0.981188	0.153500	0.291523	-1.011871	0.117170	-0.036424	0.072256	0.093050	-0.090901	0.076443	-0.112690	0.000000	0.000000	0.000000	0.296644	-1.062242	0.040060	-0.388660	-0.955422	0.067360	-0.480252	-1.033657	0.081500	0.218535	-0.976198	0.043670	-0.482570	-1.119729	0.113320	-0.536080	-1.106502	0.146670	-0.144927	-0.045288	0.143500	-0.045961	0.189784	0.037930	-0.100309	-0.349710	0.317960	0.078725	-0.099027	-0.238100	0.061731	-0.112099	-0.181080	0.051703	-0.068406	-0.228340	-0.276721	-0.717947	0.138180	-0.206275	-0.610694	0.218680	-0.283553	-0.738842	-0.009850	-0.152960	-0.592135	0.075010	-0.134147	0.203690	-0.050710	0.353223	0.084841	-0.140970	-0.323815	-0.696457	0.068890	-0.276653	-0.532593	0.112100	-0.208256	-0.739678	0.088110	-0.124728	-0.616554	0.148620	-0.632951	-1.213395	0.034430	0.176797	-0.053837	-0.218550	-0.158241	-0.365717	0.121670	-0.084385	-0.058714	-0.057720	-0.051130	-0.090712	-0.156160	-0.525677	-1.180525	0.180650	-0.506728	-1.145000	0.192740	0.010401	-0.044231	-0.111740	0.429693	0.106879	-0.090800	0.367465	0.032094	-0.164760	0.309167	0.057964	-0.090170	-0.060673	-0.015445	-0.136030	-0.350688	-0.763516	0.044030	-0.259816	-0.815371	0.050870	-0.603571	-1.207232	0.009610	-0.136913	0.036650	0.080680	-0.453897	-0.906210	0.088920	-0.122006	0.044332	-0.010150	-0.338367	-0.850266	0.021040	-0.407338	-0.950123	0.053570	-0.485098	-1.071830	0.085480	-0.601552	-1.224204	-0.031910	-0.624567	-1.187813	0.073790	-0.553919	-1.221537	0.012030	-0.057826	-0.209864	0.249650	-0.058685	-0.232022	0.261350	0.273415	0.025391	-0.124800	0.297918	0.003920	-0.174680	-0.110318	0.171158	-0.127190	0.297653	-1.152091	0.075670	0.364604	-1.146413	0.085910	0.021529	-0.031302	0.217230	0.037407	0.193086	-0.014830	-0.036265	-0.355926	0.327950	0.393528	-0.023842	0.207410	0.353036	-0.060504	0.188380	0.375761	0.005669	0.207460	0.146821	-0.722287	0.130750	0.090296	-0.614724	0.216820	0.110448	-0.747212	-0.011960	0.006617	-0.598619	0.099470	-0.032946	0.213056	-0.129340	0.416165	0.176888	-0.039190	0.172348	-0.705178	0.037260	0.146367	-0.545712	0.122490	0.060586	-0.741548	0.080200	-0.015184	-0.617672	0.168860	0.377755	-1.241778	-0.066520	0.406670	0.034394	0.100110	0.060149	-0.375303	0.144060	0.196379	-0.024943	0.139130	0.265601	-0.002666	0.209750	0.364145	-1.222208	0.113930	0.357282	-1.188764	0.136460	0.267435	-0.017785	0.126910	0.460806	0.255808	-0.019230	0.445821	0.130653	-0.044810	0.350867	0.164825	-0.056280	0.232353	0.050121	0.139440	-0.153796	-0.246816	0.110240	0.095411	-0.267036	0.154290	-0.047450	-0.023004	-0.014780	0.061547	-0.011345	0.026920	0.196993	-0.776635	0.033120	0.107081	-0.819324	0.041890	0.339490	-1.236578	-0.066950	0.025687	0.073004	0.146120	0.265322	-0.865530	0.070000	0.100212	0.084890	0.079580	0.177350	-0.860591	0.005560	0.266598	-0.992943	0.027410	0.297709	-1.099914	0.045050	0.309884	-1.252535	-0.100060	0.394933	-1.222444	-0.026000	0.301780	-1.244861	-0.037600	0.349658	0.112813	-0.016970	0.397115	0.098322	-0.009520	-0.053445	0.297285	-0.045700
314	10.433300	-0.442150	-0.995087	0.162570	0.296698	-1.012227	0.119040	-0.035518	0.072361	0.093670	-0.084098	0.076887	-0.115540	0.000000	0.000000	0.000000	0.300289	-1.064456	0.043270	-0.388492	-0.961196	0.074480	-0.475920	-1.043402	0.089010	0.218924	-0.981121	0.048300	-0.472943	-1.131819	0.114810	-0.525034	-1.122986	0.152150	-0.144249	-0.044867	0.143980	-0.046515	0.190756	0.036760	-0.097076	-0.351168	0.316910	0.077310	-0.103030	-0.235860	0.061154	-0.114792	-0.178490	0.051345	-0.072073	-0.226370	-0.278930	-0.719853	0.149240	-0.204613	-0.611639	0.223460	-0.294042	-0.739947	0.002770	-0.158089	-0.594178	0.077790	-0.130285	0.204402	-0.056390	0.361287	0.074634	-0.157470	-0.329852	-0.698669	0.083170	-0.279798	-0.534458	0.120360	-0.213451	-0.741175	0.095390	-0.126439	-0.617980	0.149920	-0.625524	-1.219988	0.034010	0.177016	-0.060484	-0.221510	-0.159409	-0.366047	0.122230	-0.084630	-0.059240	-0.056670	-0.051644	-0.092432	-0.153920	-0.512455	-1.199238	0.178910	-0.493088	-1.164820	0.193530	0.010367	-0.045754	-0.110290	0.442600	0.094413	-0.113950	0.371797	0.020439	-0.180070	0.318657	0.052385	-0.103220	-0.060914	-0.017044	-0.135080	-0.358150	-0.766495	0.060720	-0.266053	-0.816479	0.059780	-0.596792	-1.211577	0.009020	-0.136229	0.037934	0.081060	-0.453417	-0.916062	0.104000	-0.121735	0.044773	-0.010600	-0.345315	-0.851954	0.032880	-0.408345	-0.955650	0.062420	-0.478804	-1.081805	0.090520	-0.596085	-1.224999	-0.033550	-0.615903	-1.198004	0.075500	-0.547161	-1.225555	0.008600	-0.056632	-0.210884	0.248840	-0.057230	-0.233218	0.260370	0.279625	0.019251	-0.134440	0.301281	-0.005279	-0.184410	-0.102511	0.171591	-0.131410	0.305972	-1.152822	0.080560	0.373020	-1.146006	0.088530	0.023064	-0.032612	0.217420	0.039074	0.193696	-0.011850	-0.032884	-0.357403	0.325580	0.394806	-0.055289	0.184590	0.350301	-0.087240	0.165860	0.379347	-0.024172	0.185980	0.143779	-0.726684	0.130990	0.091304	-0.616470	0.214390	0.101904	-0.756429	-0.008850	0.002901	-0.603094	0.099810	-0.025116	0.213387	-0.129800	0.435011	0.148595	-0.042980	0.165398	-0.712379	0.036500	0.143500	-0.550038	0.117020	0.055882	-0.747685	0.084270	-0.016243	-0.620241	0.170020	0.383603	-1.244588	-0.061750	0.410465	0.004367	0.077990	0.059414	-0.375648	0.139500	0.194337	-0.035453	0.131410	0.269261	-0.022901	0.196320	0.373146	-1.222000	0.118260	0.367011	-1.187853	0.140190	0.264385	-0.034729	0.113270	0.488203	0.215123	-0.006100	0.458288	0.100416	-0.056510	0.369306	0.149593	-0.063380	0.236033	0.035228	0.130610	-0.154682	-0.247190	0.110880	0.094753	-0.267881	0.151920	-0.047256	-0.022775	-0.015290	0.061265	-0.012366	0.026230	0.189855	-0.783314	0.033790	0.101451	-0.827239	0.047180	0.345407	-1.238658	-0.062030	0.028201	0.072050	0.147100	0.262611	-0.868143	0.069520	0.102816	0.082326	0.079800	0.171778	-0.868154	0.009460	0.266758	-0.996642	0.030250	0.303371	-1.101797	0.049060	0.315319	-1.254444	-0.094770	0.401276	-1.224716	-0.021900	0.307808	-1.246264	-0.032140	0.359459	0.091592	-0.034170	0.404742	0.070724	-0.029890	-0.049527	0.297983	-0.047650
315	10.466700	-0.441558	-0.995912	0.164930	0.297326	-1.012731	0.120840	-0.035803	0.072178	0.093810	-0.084322	0.076891	-0.115330	0.000000	0.000000	0.000000	0.300860	-1.065201	0.045280	-0.388742	-0.961922	0.076380	-0.475986	-1.044212	0.091640	0.219416	-0.981925	0.050050	-0.472720	-1.132619	0.117290	-0.524346	-1.123851	0.155170	-0.144360	-0.045408	0.143600	-0.046609	0.190936	0.036800	-0.097048	-0.351333	0.316390	0.077835	-0.102767	-0.236130	0.061522	-0.114741	-0.178840	0.051891	-0.071897	-0.226580	-0.279026	-0.720320	0.150270	-0.204449	-0.611917	0.223770	-0.294876	-0.740725	0.003960	-0.158387	-0.594868	0.078030	-0.130364	0.204553	-0.056360	0.362277	0.074140	-0.156720	-0.330276	-0.699286	0.084430	-0.279958	-0.534960	0.120760	-0.213807	-0.741775	0.096170	-0.126485	-0.618485	0.150090	-0.626256	-1.221072	0.038410	0.177571	-0.060346	-0.221460	-0.159214	-0.366446	0.121720	-0.084438	-0.059311	-0.057170	-0.051281	-0.092337	-0.154410	-0.511294	-1.200087	0.181820	-0.491802	-1.165625	0.196150	0.010700	-0.045807	-0.110510	0.443868	0.092476	-0.112910	0.372300	0.019924	-0.179500	0.319350	0.052169	-0.102660	-0.060563	-0.016985	-0.135390	-0.358690	-0.767190	0.062380	-0.266540	-0.817157	0.060850	-0.597846	-1.212643	0.013070	-0.136489	0.037521	0.080810	-0.453424	-0.916870	0.106530	-0.121789	0.044617	-0.010800	-0.346002	-0.852648	0.034500	-0.408719	-0.956376	0.064520	-0.478853	-1.082624	0.093140	-0.597677	-1.226053	-0.029460	-0.616114	-1.199073	0.079770	-0.548236	-1.226522	0.012010	-0.056674	-0.211226	0.248340	-0.057271	-0.233514	0.259860	0.280099	0.019179	-0.133910	0.301799	-0.005366	-0.183890	-0.102635	0.171591	-0.131330	0.306663	-1.153391	0.082890	0.373751	-1.146644	0.090720	0.022724	-0.033006	0.217510	0.039041	0.193714	-0.011790	-0.032895	-0.357529	0.325170	0.394747	-0.056080	0.183780	0.350121	-0.087810	0.165020	0.379407	-0.024848	0.185250	0.144134	-0.727219	0.131870	0.091578	-0.616754	0.214740	0.102243	-0.757498	-0.007840	0.003109	-0.603824	0.100040	-0.025195	0.213323	-0.129760	0.435851	0.147122	-0.041540	0.165693	-0.713230	0.037330	0.143695	-0.550602	0.117200	0.056205	-0.748451	0.085160	-0.016065	-0.620752	0.170280	0.383616	-1.245356	-0.059550	0.410508	0.003561	0.077090	0.059550	-0.375962	0.139190	0.194083	-0.035631	0.131400	0.269223	-0.023516	0.196060	0.373775	-1.222716	0.120460	0.367796	-1.188499	0.142400	0.264116	-0.034980	0.112960	0.487469	0.211428	0.000800	0.459136	0.099382	-0.056160	0.370562	0.149615	-0.062810	0.235847	0.034902	0.130700	-0.154615	-0.247578	0.110250	0.094852	-0.268040	0.151460	-0.047201	-0.022751	-0.015480	0.061232	-0.012356	0.026350	0.190181	-0.784176	0.034900	0.101812	-0.828118	0.048450	0.345442	-1.239263	-0.059770	0.027748	0.071814	0.147330	0.263035	-0.868841	0.070840	0.102608	0.082192	0.080290	0.172149	-0.869129	0.010850	0.267241	-0.997477	0.032030	0.304003	-1.102476	0.051230	0.315208	-1.254948	-0.092440	0.401493	-1.225553	-0.019780	0.307920	-1.246797	-0.029790	0.359817	0.091050	-0.034890	0.404955	0.069763	-0.030820	-0.049470	0.298062	-0.047790
316	10.500000	-0.441455	-0.996067	0.164780	0.297131	-1.013697	0.122130	-0.035682	0.072196	0.093890	-0.084897	0.077267	-0.114880	0.000000	0.000000	0.000000	0.300544	-1.066209	0.046620	-0.388903	-0.962024	0.076080	-0.476116	-1.044321	0.091550	0.219212	-0.982847	0.051320	-0.472757	-1.132692	0.117130	-0.524286	-1.123957	0.155130	-0.144176	-0.045445	0.143670	-0.046097	0.190906	0.037280	-0.097066	-0.351527	0.316070	0.077648	-0.103317	-0.236000	0.061212	-0.115262	-0.178720	0.051720	-0.072413	-0.226480	-0.279096	-0.720466	0.149890	-0.204462	-0.612091	0.223350	-0.295160	-0.740786	0.003560	-0.158512	-0.594997	0.077660	-0.130285	0.204941	-0.055440	0.362423	0.073078	-0.155130	-0.330446	-0.699398	0.084120	-0.280099	-0.535053	0.120420	-0.213949	-0.741905	0.095720	-0.126544	-0.618655	0.149690	-0.626333	-1.221440	0.038570	0.177397	-0.060910	-0.220960	-0.159194	-0.366475	0.121450	-0.084533	-0.059139	-0.057150	-0.051485	-0.092485	-0.154310	-0.511103	-1.200161	0.181790	-0.491615	-1.165655	0.196040	0.010628	-0.046053	-0.110450	0.444055	0.090126	-0.110730	0.372028	0.018887	-0.178170	0.319122	0.051181	-0.101310	-0.060587	-0.017047	-0.135370	-0.358885	-0.767292	0.062100	-0.266714	-0.817282	0.060340	-0.597971	-1.212985	0.013200	-0.136377	0.037571	0.080920	-0.453489	-0.916990	0.106470	-0.121689	0.044880	-0.010680	-0.346279	-0.852728	0.034150	-0.408925	-0.956458	0.064290	-0.478976	-1.082732	0.093020	-0.597796	-1.226412	-0.029290	-0.616179	-1.199409	0.079930	-0.548386	-1.226767	0.012100	-0.056699	-0.211438	0.248240	-0.057306	-0.233717	0.259750	0.279712	0.018512	-0.132840	0.301487	-0.005943	-0.182860	-0.103040	0.172050	-0.130620	0.306249	-1.154394	0.084310	0.373376	-1.147747	0.092080	0.022772	-0.033116	0.217660	0.039389	0.193562	-0.011760	-0.032939	-0.357705	0.324900	0.394351	-0.056601	0.184590	0.349697	-0.088330	0.165930	0.379155	-0.025291	0.186060	0.144206	-0.727749	0.132750	0.091584	-0.617009	0.215010	0.102358	-0.758402	-0.006840	0.003126	-0.604413	0.100160	-0.025458	0.213595	-0.129370	0.433875	0.145868	-0.041330	0.165785	-0.714036	0.038200	0.143719	-0.551128	0.117380	0.056254	-0.749098	0.085970	-0.016110	-0.621144	0.170400	0.382842	-1.245894	-0.058590	0.409753	0.002633	0.077590	0.059529	-0.376071	0.138930	0.193999	-0.035782	0.131700	0.268949	-0.023807	0.196650	0.373367	-1.223960	0.121540	0.367454	-1.189788	0.143640	0.264047	-0.035324	0.113490	0.483922	0.208983	0.004370	0.457648	0.098688	-0.056640	0.368435	0.148286	-0.062300	0.235829	0.034615	0.131130	-0.154710	-0.247578	0.110060	0.094812	-0.268134	0.151180	-0.047217	-0.022674	-0.015500	0.061269	-0.012411	0.026370	0.190260	-0.785024	0.036020	0.101813	-0.828874	0.049590	0.344671	-1.239744	-0.058730	0.027722	0.071798	0.147340	0.263020	-0.869795	0.072040	0.102707	0.082168	0.080340	0.172126	-0.870035	0.012060	0.267021	-0.998473	0.033310	0.303636	-1.103438	0.052630	0.314338	-1.255285	-0.091400	0.400868	-1.226296	-0.018800	0.307220	-1.247401	-0.028700	0.358453	0.089642	-0.034440	0.403811	0.068470	-0.030670	-0.049076	0.298224	-0.047120
